#N canvas 845 622 1482 1139 10;
#X obj 119 32 netreceive -u -b 5000;
#X text 256 31 that number is the port that PD listens at;
#X obj 331 666 oscparse;
#X obj 337 700 list trim;
#X obj 331 666 oscparse;
#X obj 337 700 list trim;
#X obj 121 61 oscparse;
#X obj 121 80 list trim;
#X obj 121 102 route x amp;
#X floatatom 56 130 5 0 0 0 - - -, f 5;
#X floatatom 232 131 5 0 0 0 - - -, f 5;
#X text 98 131 x;
#X text 275 133 amp;
#X connect 0 0 6 0;
#X connect 2 0 3 0;
#X connect 4 0 5 0;
#X connect 6 0 7 0;
#X connect 7 0 8 0;
#X connect 8 0 9 0;
#X connect 8 1 10 0;
